<svg id="" width="256" height="256"><g id=""><svg xmlns="http://www.w3.org/2000/svg" enable-background="new 0 0 67 67" viewBox="0 0 67 67" width="256" height="256"><path d="M12.9509 55.1739c-1.13-1.13-3.09-1.13-4.22 0l-.4.4c-1.17 1.17-1.17 3.06 0 4.22l5.93 5.93c1.1381 1.1584 3.0305 1.1895 4.22 0l.4-.4c1.17-1.17 1.17-3.06 0-4.22L12.9509 55.1739zM29.9909 25.6839c-1.14-1.14-3.12-1.14-4.26 0l-.41.41c-1.17 1.18-1.17 3.08 0 4.26l19.13 19.13c1.1738 1.1738 3.0858 1.1742 4.26 0l.41-.41c1.17-1.18 1.17-3.08 0-4.26L29.9909 25.6839zM24.22261 32.0856l-10.11 21.45c.11059.0738 6.33219 6.245 6.7 6.76l3.06039-1.4427 3.2113 3.2113c.9765.9765 2.5657.988 3.5537 0l4.9043-4.9043c.9795-.9795.9795-2.5742 0-3.5537l-.1726-.1726 6.93291-3.268L24.22261 32.0856zM34.1283 55.7459l-4.9043 4.9043c-.19439.1943-.5332.1924-.7256 0l-2.7033-2.7033 7.6521-3.607.6811.6804C34.3285 55.2205 34.3285 55.5457 34.1283 55.7459z" fill="#000000" class="color000 svgShape"></path><rect width="2" height="4.715" x="42.462" y="28.568" transform="rotate(45 43.462 30.925)" fill="#000000" class="color000 svgShape"></rect><rect width="2" height="7.524" x="44.78" y="31.467" transform="rotate(67.492 45.78 35.229)" fill="#000000" class="color000 svgShape"></rect><rect width="2" height="7.523" x="38.159" y="24.847" transform="rotate(-157.492 39.159 28.609)" fill="#000000" class="color000 svgShape"></rect><path d="M36.82261 18.5156v6.23l6.49-4.52h1.48c7.79 0 14.13-4.45 14.13-9.92s-6.34-9.91-14.13-9.91c-7.8 0-14.14 4.44-14.14 9.91C30.65261 13.6456 32.95261 16.6756 36.82261 18.5156zM38.61461 6.6609H50.9613v2H38.61461V6.6609zM38.61461 11.9588H50.9613v2H38.61461V11.9588zM29.50261 18.3756c.06.29-.02.6-.21.83l-4.44 5.32c-.21851.2645-.58731.426-1.02.33-.37-.1-.66-.4-.73-.78l-1.67-8.6c-.07-.38.08-.76.39-.99.31-.23.72-.26 1.06-.08l6.11 3.28C29.26261 17.8256 29.45261 18.0756 29.50261 18.3756zM21.51261 11.1456L19.3492 2.5294l-6.5481 7.0407c-.1924.207-.4599.3193-.7324.3193-.1113 0-.2227-.0185-.33109-.0566L2.648 6.6457l2.18461 8.6999c.12.46.53.76.97.76.08 0 .17-.01.25-.03l14.74-3.71C21.32261 12.2256 21.65261 11.6856 21.51261 11.1456z" fill="#000000" class="color000 svgShape"></path><polygon points="17.693 1.373 3.7 4.896 11.782 7.729" fill="#000000" class="color000 svgShape"></polygon><path d="M10.1588 30.1557c.6875.4277 1.4767.6673 2.3064.6673 2.4236 0 4.3867-1.9626 4.3867-4.3877 0-2.4238-1.9617-4.3867-4.3867-4.3867-2.4243 0-4.3877 1.9617-4.3877 4.3867 0 .8299.2392 1.6191.667 2.3066L6.64 30.8465c-.3906.3906-.3906 1.0234 0 1.414.39061.3906 1.0234.3907 1.414 0L10.1588 30.1557zM12.4652 24.0486c1.3181 0 2.3867 1.0671 2.3867 2.3867 0 3.1252-4.7744 3.138-4.7744 0C10.0775 25.116 11.14561 24.0486 12.4652 24.0486zM55.9442 30.8081l2.1719-4.1993 1.1309.584.623-1.2041-1.1308-.5849.1543-.2989c.3083-.5938.7607-.7146 1.2734-.4492.1416.0733.30371.1895.4834.3448l.6504-1.2579c-.1934-.2168-.4766-.4209-.8447-.6113-1.3415-.6955-2.4519-.2472-3.1495 1.0996l-.1757.3408-1.0137-.5244-.6231 1.2051 1.0137.5244-2.1719 4.1992L55.9442 30.8081zM61.391 40.2306l-2.37539 2.3754.92459.9247 1.1878-1.1877 1.332 1.332c-.2486.4185-.54.7955-.8735 1.129-1.2161 1.216-2.5177 1.1311-3.9037-.2548-1.3575-1.3576-1.4535-2.6192-.2879-3.7848.6455-.6455 1.3352-.9593 2.26571-1.1111l-.52691-1.3748c-1.0475.0648-2.086.7284-2.8257 1.468-1.8387 1.8387-1.889 4.2375.0255 6.152 1.9853 1.9853 4.3488 1.8634 6.2287-.0165.7302-.7304 1.4496-1.719 1.7898-2.6904L61.391 40.2306z" fill="#000000" class="color000 svgShape"></path></svg></g></svg>